<?xml version="1.0" standalone="no"?>
<!DOCTYPE svg PUBLIC "-//W3C//DTD SVG 20010904//EN"
 "http://www.w3.org/TR/2001/REC-SVG-20010904/DTD/svg10.dtd">
<svg version="1.0" xmlns="http://www.w3.org/2000/svg"
 width="48.000000pt" height="48.000000pt" viewBox="0 0 48.000000 48.000000"
 preserveAspectRatio="xMidYMid meet">

<g transform="translate(0.000000,48.000000) scale(0.100000,-0.100000)"
fill="#000000" stroke="none">
<path d="M160 467 c-49 -16 -133 -102 -148 -153 -23 -78 -11 -149 35 -211 27
-38 78 -78 110 -88 20 -6 23 -3 23 24 0 27 -3 31 -29 31 -21 0 -36 9 -56 36
-33 44 -27 53 13 19 34 -28 67 -33 76 -9 9 23 8 24 -15 24 -11 0 -34 14 -51
30 -32 32 -32 35 -12 168 6 42 8 44 33 36 36 -10 170 -11 202 -1 26 8 27 7 33
-35 20 -132 20 -136 -12 -168 -17 -16 -39 -30 -49 -30 -17 0 -19 -6 -15 -63 2
-34 6 -64 7 -65 9 -10 81 36 114 74 84 95 81 217 -6 314 -65 72 -158 97 -253
67z"/>
</g>
</svg>
